<svg xmlns="http://www.w3.org/2000/svg" viewBox="0 0 116.45 48.83"><defs><style>.a{fill:#1fa7df;}.b{fill:#00c357;}</style></defs><title>Amira_Logo_v2</title><polygon class="a" points="29.47 20.12 29.47 38.91 33.51 38.91 33.55 28.06 41.06 38.91 45.09 38.96 52.66 27.98 52.68 38.9 56.72 38.91 56.72 20.12 52.67 20.12 43.1 33.89 33.43 20.1 29.47 20.12"/><rect class="b" x="59.36" y="20.08" width="4.02" height="18.85"/><path class="b" d="M101.26,353.14h5L94.72,334.33H90.59L78.05,353.14h5.59l2-3.2H99.28Zm-13.2-6.89,4.55-7.09L97,346.25H88.06Z" transform="translate(-78.04 -314.21)"/><path class="a" d="M189.06,353.14h5l-11.55-18.81H178.4l-12.54,18.81h5.59l2-3.2h13.59Zm-13.2-6.89,4.55-7.09,4.39,7.09h-8.94Z" transform="translate(-78.04 -314.21)"/><path class="a" d="M165.41,341.2v-2.53A4.38,4.38,0,0,0,161,334.3H144.42l0,18.84h4.06v-7.54h8.64l3.91,7.54h4.26l-4-7.56v0A4.38,4.38,0,0,0,165.41,341.2Zm-17-2.93h11.5a1.15,1.15,0,0,1,1.15,1.15v1.14a1.15,1.15,0,0,1-1.15,1.15l-3.28,0h-8.23v-3.45Z" transform="translate(-78.04 -314.21)"/><polygon class="b" points="60.57 42.49 60.58 48.81 61.99 48.81 61.98 44.34 67.48 48.82 68.88 48.82 68.88 42.49 67.48 42.49 67.47 47.05 61.86 42.48 60.57 42.49"/><polygon class="b" points="75.83 42.49 75.83 48.81 77.24 48.81 77.24 44.34 82.74 48.82 84.13 48.82 84.13 42.49 82.74 42.49 82.74 47.05 77.11 42.48 75.83 42.49"/><rect class="b" x="71.53" y="42.47" width="1.35" height="6.35"/><rect class="b" x="87.06" y="350.24" width="1.27" height="19.3" transform="translate(369.54 -42.02) rotate(90)"/><rect class="b" x="184.2" y="350.24" width="1.27" height="19.3" transform="translate(466.68 -139.16) rotate(90)"/><path class="b" d="M125.52,363h1.68l-3.88-6.32h-1.39L117.73,363h1.88l0.69-1.07h4.57Zm-4.44-2.31,1.53-2.38,1.48,2.38h-3Z" transform="translate(-78.04 -314.21)"/><path class="b" d="M136.14,359v-0.85a1.47,1.47,0,0,0-1.47-1.47H129.1V363h1.36v-2.53h2.9l1.31,2.53h1.43l-1.33-2.54h0A1.47,1.47,0,0,0,136.14,359Zm-5.69-1h3.86a0.39,0.39,0,0,1,.38.38v0.38a0.39,0.39,0,0,1-.38.38h-3.86V358Z" transform="translate(-78.04 -314.21)"/><polygon class="b" points="22.31 42.47 23.75 42.47 23.75 47.54 28.68 47.54 28.68 48.81 22.33 48.81 22.31 42.47"/><polygon class="b" points="32.67 43.93 37.57 43.93 37.57 42.48 31.27 42.48 31.27 48.81 37.57 48.81 37.57 47.55 32.67 47.55 32.67 46.36 37.57 46.36 37.57 45.03 32.67 45.03 32.67 43.93"/><path class="b" d="M170.64,359.28h-1.37v1.29h1.37v0.79a0.37,0.37,0,0,1-.37.37h-4a0.37,0.37,0,0,1-.37-0.37v-3a0.37,0.37,0,0,1,.37-0.37H172v-1.29h-6.13a1.3,1.3,0,0,0-1.3,1.3v3.72a1.3,1.3,0,0,0,1.3,1.3h4.84a1.3,1.3,0,0,0,1.3-1.3v-2.45h-1.33Z" transform="translate(-78.04 -314.21)"/><polygon class="a" points="65.92 2.88 35.81 0 8 11.32 38.49 14.1 60.66 5.03 60.66 13.05 61.93 13.05 61.93 4.51 65.92 2.88"/><ellipse class="b" cx="61.29" cy="13.72" rx="2.15" ry="1.96"/></svg>