<svg width="18" height="18" viewBox="0 0 18 18" fill="none" xmlns="http://www.w3.org/2000/svg">
<g clip-path="url(#clip0)">
<path d="M8.66 16.82C13.1666 16.82 16.82 13.1666 16.82 8.66C16.82 4.15336 13.1666 0.5 8.66 0.5C4.15336 0.5 0.5 4.15336 0.5 8.66C0.5 13.1666 4.15336 16.82 8.66 16.82Z" fill="#BA1D0D" stroke="white" stroke-miterlimit="10"/>
<path d="M12.66 10.53H4.66001C4.10001 10.53 3.64001 10.07 3.64001 9.51004V7.81004C3.64001 7.25004 4.10001 6.79004 4.66001 6.79004H12.67C13.23 6.79004 13.69 7.25004 13.69 7.81004V9.51004C13.68 10.07 13.22 10.53 12.66 10.53Z" fill="white"/>
</g>
<defs>
<clipPath id="clip0">
<rect width="17.32" height="17.32" fill="white"/>
</clipPath>
</defs>
</svg>
