<svg xmlns="http://www.w3.org/2000/svg" xmlns:xlink="http://www.w3.org/1999/xlink" viewBox="0 0 1439.79 981.29" preserveAspectRatio="none">
  <defs>
    <linearGradient id="a" x1="131" y1="209.11" x2="133.9" y2="209.11" gradientUnits="userSpaceOnUse">
      <stop offset="0" stop-color="#fff" stop-opacity=".6"/>
      <stop offset=".18" stop-color="#fffdf9" stop-opacity=".59"/>
      <stop offset=".38" stop-color="#fff6e8" stop-opacity=".57"/>
      <stop offset=".6" stop-color="#ffeacc" stop-opacity=".52"/>
      <stop offset=".82" stop-color="#ffdaa5" stop-opacity=".46"/>
      <stop offset="1" stop-color="#ffca7c" stop-opacity=".4"/>
    </linearGradient>
    <linearGradient id="b" x1="1112.32" y1="1170.35" x2="327.47" y2="-189.06" gradientUnits="userSpaceOnUse">
      <stop offset="0" stop-color="#fff" stop-opacity=".6"/>
      <stop offset=".15" stop-color="#fffdf9" stop-opacity=".59"/>
      <stop offset=".33" stop-color="#fff6e7" stop-opacity=".55"/>
      <stop offset=".51" stop-color="#ffecc9" stop-opacity=".48"/>
      <stop offset=".7" stop-color="#ffdd9f" stop-opacity=".39"/>
      <stop offset=".89" stop-color="#ffca6a" stop-opacity=".28"/>
      <stop offset="1" stop-color="#ffbd45" stop-opacity=".2"/>
    </linearGradient>
    <linearGradient id="c" x1="10779.77" y1="1207.51" x2="9977.65" y2="405.39" gradientTransform="matrix(-1 0 0 1 11032.92 0)" gradientUnits="userSpaceOnUse">
      <stop offset="0" stop-color="#fff" stop-opacity=".4"/>
      <stop offset=".16" stop-color="#eef9fd" stop-opacity=".38"/>
      <stop offset=".4" stop-color="#c0eaf9" stop-opacity=".32"/>
      <stop offset=".67" stop-color="#74d0f2" stop-opacity=".22"/>
      <stop offset=".98" stop-color="#0aace9" stop-opacity=".09"/>
      <stop offset="1" stop-color="#01a9e8" stop-opacity=".08"/>
    </linearGradient>
    <linearGradient id="d" x1="10313.03" y1="740.61" x2="10313.03" y2="959.98" gradientTransform="matrix(-1 0 0 1 11032.92 0)" gradientUnits="userSpaceOnUse">
      <stop offset="0" stop-color="#fff" stop-opacity=".6"/>
      <stop offset=".15" stop-color="#fcfdf9" stop-opacity=".59"/>
      <stop offset=".32" stop-color="#f4f6e6" stop-opacity=".55"/>
      <stop offset=".5" stop-color="#e5ebc6" stop-opacity=".49"/>
      <stop offset=".69" stop-color="#d1dc9b" stop-opacity=".4"/>
      <stop offset=".88" stop-color="#b8c963" stop-opacity=".28"/>
      <stop offset="1" stop-color="#a5ba39" stop-opacity=".2"/>
    </linearGradient>
    <linearGradient id="e" x1="603.6" y1="946.07" x2="606.5" y2="946.07" xlink:href="#a"/>
  </defs>
  <g data-name="Layer 1">
    <path d="M132.45 210.61a1.5 1.5 0 0 0 0-3 1.5 1.5 0 0 0 0 3z" fill="url(#a)"/>
    <path style="mix-blend-mode:multiply" fill="#fff" d="M0 0h1439.79v981.29H0z"/>
    <path fill="url(#b)" d="M0 0h1439.79v981.29H0z"/>
    <path d="M1439.79 697.2V981H0V507.55c116-163.78 322.88-172.92 491.52 64.66-2.25-237.58 228.37-284.14 332.77-81.88 116.92-125 301.3-51.74 301.3 142.22 132.66-142.22 314.2-77.55 314.2 64.65z" fill="url(#c)"/>
    <path d="M1439.79 792v189H0V744.57c437.55-45.22 595 129.34 837.78 53.91s602.01-6.48 602.01-6.48z" fill="url(#d)"/>
    <path d="M605.05 947.57a1.5 1.5 0 0 0 0-3 1.5 1.5 0 0 0 0 3z" fill="url(#e)"/>
  </g>
</svg>
