<svg width="88" height="84" viewBox="0 0 88 84" fill="none" xmlns="http://www.w3.org/2000/svg">
<path d="M88 33.0247C71.6771 -24.7585 19.7002 4.87926 30.2635 34.4704C34.7872 47.179 45.0241 44.9871 48.7084 61.5432C56.4734 96.311 82.3103 80.198 82.3103 80.198" fill="#FFCA7C"/>
<g style="mix-blend-mode:multiply">
<path d="M40.6869 28.2677C40.477 10.1959 69.9516 4.66941 74.1256 36.8023C59.5516 42.3288 67.5731 57.5091 70.861 61.1701L58.4323 64.8311C54.095 39.9036 41.0134 46.3162 40.6869 28.2677Z" fill="#FFCA7C"/>
</g>
<g style="mix-blend-mode:multiply">
<path d="M58.4322 41.979C46.0967 33.0014 69.9515 4.6694 74.1255 36.779C59.5515 42.3054 67.4331 55.4337 70.861 61.1468C67.1533 58.8149 62.1632 40.953 58.4322 41.979Z" fill="#FFCA7C"/>
</g>
<path d="M17.5316 40.953C8.48402 47.8086 15.7127 66.4401 26.0895 64.7145" stroke="#5BDCFF" stroke-width="3" stroke-miterlimit="10" stroke-linecap="round"/>
<path d="M9.50998 33.0247C-6.99951 45.4767 6.19875 79.4285 25.0867 76.3038" stroke="#5BDCFF" stroke-width="3" stroke-miterlimit="10" stroke-linecap="round"/>
</svg>
