<svg width="50" height="80" viewBox="0 0 50 80" fill="none" xmlns="http://www.w3.org/2000/svg">
<path d="M22.5784 75.9195V68.1047C20.3916 67.7047 18.2272 67.1913 16.0937 66.5666C12.8437 65.6293 9.84374 63.9787 7.31247 61.735C4.78119 59.4914 2.78237 56.7113 1.46167 53.5973C0.486814 51.3405 -0.00861543 48.9058 0.00677487 46.4476C-0.0158659 46.1678 0.0183776 45.8864 0.107441 45.6203C0.196504 45.3541 0.338541 45.1088 0.524989 44.8991C0.711436 44.6893 0.938432 44.5195 1.19229 44.3998C1.44614 44.2802 1.7216 44.2132 2.00205 44.2029C2.28384 44.1966 2.56386 44.2489 2.82441 44.3564C3.08495 44.4639 3.32035 44.6243 3.5157 44.8275C3.71106 45.0306 3.86212 45.2721 3.95934 45.5367C4.05655 45.8012 4.0978 46.0831 4.08047 46.3644C4.11401 48.553 4.59612 50.7114 5.497 52.7062C6.39788 54.701 7.69838 56.4898 9.31808 57.962C12.7908 61.2772 17.2949 63.3019 22.0796 63.6984C27.4773 64.3577 32.9302 63.0277 37.4183 59.9573C39.3372 58.7321 40.9841 57.1259 42.2568 55.2382C43.5296 53.3505 44.4011 51.2215 44.8174 48.9832C44.9622 48.1452 45.0456 47.2977 45.0668 46.4476C45.0557 46.1636 45.1007 45.8803 45.1991 45.6138C45.2976 45.3473 45.4476 45.1028 45.6407 44.8943C45.8337 44.6858 46.066 44.5175 46.3241 44.3988C46.5823 44.2802 46.8613 44.2136 47.1453 44.2029C47.4316 44.2066 47.7139 44.2706 47.9738 44.3907C48.2337 44.5109 48.4654 44.6845 48.6536 44.9003C48.8419 45.116 48.9826 45.369 49.0665 45.6428C49.1504 45.9166 49.1756 46.2049 49.1405 46.4891C49.0763 49.6042 48.2925 52.6623 46.8503 55.4242C45.408 58.186 43.3465 60.5769 40.8269 62.4098C36.9306 65.4891 32.2217 67.3669 27.2756 67.8137H26.4858V75.8364H32.4301C32.9813 75.8364 33.51 76.0553 33.8997 76.4451C34.2895 76.8349 34.5085 77.3636 34.5085 77.9148C34.5085 78.466 34.2895 78.9947 33.8997 79.3844C33.51 79.7742 32.9813 79.9932 32.4301 79.9932H17.0914C16.8102 80.0162 16.5274 79.9806 16.2607 79.8886C15.9941 79.7966 15.7495 79.6502 15.5423 79.4588C15.3352 79.2673 15.1701 79.0349 15.0575 78.7762C14.9449 78.5176 14.8873 78.2384 14.8882 77.9564C14.8877 77.6726 14.9453 77.3917 15.0575 77.1311C15.1696 76.8704 15.334 76.6355 15.5404 76.4408C15.7468 76.2461 15.9909 76.0957 16.2576 75.9989C16.5244 75.9021 16.8081 75.8609 17.0914 75.8779L22.5784 75.9195Z" fill="#A7ADB7"/>
<path d="M41.5756 29.1554C41.5756 25.2479 41.5756 21.3405 41.5756 17.4331C41.5631 16.2913 41.4659 15.1519 41.2846 14.0245C40.5631 9.81684 38.2738 6.03896 34.878 3.45192C31.4821 0.864874 27.2319 -0.339092 22.9838 0.0825642C18.7356 0.50422 14.805 2.52016 11.9839 5.72428C9.16286 8.92839 7.66088 13.0826 7.78057 17.35C7.78057 25.1648 7.78057 33.0212 7.78057 40.8361C7.77941 41.9493 7.86279 43.0609 8.02998 44.1615C8.67288 47.7449 10.4601 51.0234 13.1236 53.5053C15.7871 55.9873 19.1834 57.5389 22.8033 57.9276C26.4231 58.3162 30.0714 57.521 33.2011 55.6611C36.3308 53.8013 38.7733 50.9769 40.1623 47.6117C41.1033 45.4626 41.5847 43.1405 41.5756 40.7945V29.1554ZM37.4188 15.3131C37.4188 15.7704 37.4188 22.2134 37.4188 29.1554H11.8543C11.8543 24.9985 36.5458 8.3712 37.4188 15.3131ZM37.4188 43.4549H12.4778C12.3179 42.7442 12.2205 42.0209 12.1868 41.2933V40.2541H37.4188V40.9608C37.4177 41.7983 37.3341 42.6337 37.1694 43.4549H37.4188ZM11.8543 36.222V33.0212H37.4188V36.222H11.8543ZM27.6502 53.3897C24.997 54.0286 22.2088 53.8 19.695 52.7376C17.1812 51.6753 15.0742 49.835 13.6833 47.487H35.6313C34.7628 48.9541 33.609 50.2324 32.2382 51.2462C30.8674 52.26 29.3074 52.9888 27.6502 53.3897Z" fill="#A7ADB7"/>
</svg>
