<svg id="Layer_1" data-name="Layer 1" xmlns="http://www.w3.org/2000/svg" viewBox="0 0 35.5 24.85"><title>MVP1-Teacher-Listening-Voice</title><path d="M17.72,23.37V21.49a14.81,14.81,0,0,1-1.56-.37A5.51,5.51,0,0,1,12.63,18a4.43,4.43,0,0,1-.34-1.72.5.5,0,0,1,.48-.54.49.49,0,0,1,.5.52,3.81,3.81,0,0,0,1.26,2.79,5,5,0,0,0,3.06,1.38,5.35,5.35,0,0,0,3.73-.9,4.07,4.07,0,0,0,1.78-2.64,4.2,4.2,0,0,0,.06-.61.51.51,0,0,1,.5-.54.49.49,0,0,1,.48.55,4.84,4.84,0,0,1-2,3.83,6.12,6.12,0,0,1-3.25,1.3l-.2,0v1.93h1.37a.49.49,0,0,1,.48.5.48.48,0,0,1-.49.49H16.39a.48.48,0,0,1-.52-.49.49.49,0,0,1,.53-.5Z" style="fill:#fff"/><path d="M22.28,12.09V9.27a7.35,7.35,0,0,0-.07-.82,4.06,4.06,0,0,0-8.06.8V14.9a5.54,5.54,0,0,0,.07.81,4.05,4.05,0,0,0,7.73.82h0a4,4,0,0,0,.33-1.59Zm-1-3.29c0,.1,0,1.65,0,3.28H15.13C15.14,11.14,21.08,7.1,21.26,8.8Zm0,6.76h-6a2.25,2.25,0,0,1-.07-.52v-.25h6.15V15A3,3,0,0,1,21.23,15.56Zm-6.09-1.74c0-.26,0-.51,0-.77h6.15v.77ZM18.94,18a3.07,3.07,0,0,1-3.36-1.42h5.27A3,3,0,0,1,18.94,18Z" style="fill:#fff"/><circle cx="3.69" cy="13.05" r="2.72" style="fill:none;stroke:#fff;stroke-miterlimit:10"/><circle cx="31.48" cy="20.05" r="1.3" style="fill:none;stroke:#fff;stroke-miterlimit:10"/><circle cx="9.96" cy="1.29" r="1.29" style="fill:#fff"/><circle cx="34.85" cy="10.23" r="0.65" style="fill:#fff"/><circle cx="7.14" cy="23.78" r="0.65" style="fill:#fff"/><circle cx="30.25" cy="2.41" r="2.41" style="fill:#fff"/></svg>