<svg id="Layer_1" data-name="Layer 1" xmlns="http://www.w3.org/2000/svg" viewBox="0 0 11.85 19.24"><title>MVP1-Teacher-Inactive-Voice</title><path d="M5.43,18.25V16.37A15.43,15.43,0,0,1,3.87,16,5.47,5.47,0,0,1,.35,12.88,4.27,4.27,0,0,1,0,11.16a.5.5,0,0,1,.48-.54.49.49,0,0,1,.5.52,3.85,3.85,0,0,0,1.26,2.79,5.05,5.05,0,0,0,3.07,1.38A5.38,5.38,0,0,0,9,14.41a4,4,0,0,0,1.78-2.64,4.2,4.2,0,0,0,.06-.61.52.52,0,0,1,.5-.54.49.49,0,0,1,.48.55,4.86,4.86,0,0,1-2,3.83,6.15,6.15,0,0,1-3.26,1.3l-.19,0v1.93H7.8a.5.5,0,0,1,0,1H4.11a.49.49,0,0,1-.53-.49.5.5,0,0,1,.53-.5Z" style="fill:#09c"/><path d="M10,7c0-.94,0-1.88,0-2.82a5.55,5.55,0,0,0-.07-.82,4.06,4.06,0,0,0-8.06.8c0,1.88,0,3.77,0,5.65a5.29,5.29,0,0,0,.06.8,4.05,4.05,0,0,0,7.73.83h0A4.05,4.05,0,0,0,10,9.8ZM9,3.67C9,3.78,9,5.33,9,7H2.85C2.85,6,8.79,2,9,3.67Zm0,6.77h-6a3,3,0,0,1-.07-.52V9.67H9v.17A3.07,3.07,0,0,1,8.94,10.44ZM2.85,8.7V7.93H9V8.7Zm3.8,4.13a3.07,3.07,0,0,1-3.36-1.42H8.57A3.07,3.07,0,0,1,6.65,12.83Z" style="fill:#09c"/></svg>